GIL03_xfast2_ik
nRows=3
nColumns=375

# SIMM Motion File Header:
name GIL03_xfast2_ik
datacolumns 375
datarows 3
otherdata 1
range 0.23333000 0.25000000
endheader
time	pelvis_tx	pelvis_ty	pelvis_tz	pelvis_tilt	pelvis_list	pelvis_rotation	hip_flexion_r	hip_adduction_r	hip_rotation_r	knee_angle_r	ankle_angle_r	hip_flexion_l	hip_adduction_l	hip_rotation_l	knee_angle_l	ankle_angle_l	lumbar_extension	lumbar_bending	lumbar_rotation	subtalar_angle_r	mtp_angle_r	subtalar_angle_l	mtp_angle_l	asis_r_px	asis_r_py	asis_r_pz	asis_l_px	asis_l_py	asis_l_pz	midasis_px	midasis_py	midasis_pz	psis_r_px	psis_r_py	psis_r_pz	psis_l_px	psis_l_py	psis_l_pz	hip_r_px	hip_r_py	hip_r_pz	hip_l_px	hip_l_py	hip_l_pz	midhip_px	midhip_py	midhip_pz	epicondLat_r_px	epicondLat_r_py	epicondLat_r_pz	epicondMed_r_px	epicondMed_r_py	epicondMed_r_pz	thighwand_r_px	thighwand_r_py	thighwand_r_pz	upperleg1_r_px	upperleg1_r_py	upperleg1_r_pz	upperleg2_r_px	upperleg2_r_py	upperleg2_r_pz	malleolusLat_r_px	malleolusLat_r_py	malleolusLat_r_pz	malleolusMedv_r_px	malleolusMedv_r_py	malleolusMedv_r_pz	shankwand_r_px	shankwand_r_py	shankwand_r_pz	lowerleg1_r_px	lowerleg1_r_py	lowerleg1_r_pz	knee_r_px	knee_r_py	knee_r_pz	ankle_r_px	ankle_r_py	ankle_r_pz	toe_r_px	toe_r_py	toe_r_pz	epicondLat_l_px	epicondLat_l_py	epicondLat_l_pz	epicondMed_l_px	epicondMed_l_py	epicondMed_l_pz	thighwand_l_px	thighwand_l_py	thighwand_l_pz	upperleg1_l_px	upperleg1_l_py	upperleg1_l_pz	upperleg2_l_px	upperleg2_l_py	upperleg2_l_pz	malleolusLat_l_px	malleolusLat_l_py	malleolusLat_l_pz	malleolusMedv_l_px	malleolusMedv_l_py	malleolusMedv_l_pz	shankwand_l_px	shankwand_l_py	shankwand_l_pz	lowerleg1_l_px	lowerleg1_l_py	lowerleg1_l_pz	knee_l_px	knee_l_py	knee_l_pz	ankle_l_px	ankle_l_py	ankle_l_pz	toe_l_px	toe_l_py	toe_l_pz	subclavicle_r_px	subclavicle_r_py	subclavicle_r_pz	subclavicle_l_px	subclavicle_l_py	subclavicle_l_pz	neck_px	neck_py	neck_pz	sternalnotch_px	sternalnotch_py	sternalnotch_pz	xyphoidprocess_px	xyphoidprocess_py	xyphoidprocess_pz	midhip_tx	midhip_ty	midhip_tz	hip_r_tx	hip_r_ty	hip_r_tz	hip_l_tx	hip_l_ty	hip_l_tz	knee_r_tx	knee_r_ty	knee_r_tz	knee_l_tx	knee_l_ty	knee_l_tz	ankle_r_tx	ankle_r_ty	ankle_r_tz	ankle_l_tx	ankle_l_ty	ankle_l_tz	midasis_tx	midasis_ty	midasis_tz	asis_r_tx	asis_r_ty	asis_r_tz	asis_l_tx	asis_l_ty	asis_l_tz	psis_r_tx	psis_r_ty	psis_r_tz	psis_l_tx	psis_l_ty	psis_l_tz	epicondLat_r_tx	epicondLat_r_ty	epicondLat_r_tz	epicondLat_l_tx	epicondLat_l_ty	epicondLat_l_tz	epicondMed_r_tx	epicondMed_r_ty	epicondMed_r_tz	epicondMed_l_tx	epicondMed_l_ty	epicondMed_l_tz	malleolusLat_r_tx	malleolusLat_r_ty	malleolusLat_r_tz	malleolusLat_l_tx	malleolusLat_l_ty	malleolusLat_l_tz	malleolusMedv_r_tx	malleolusMedv_r_ty	malleolusMedv_r_tz	malleolusMedv_l_tx	malleolusMedv_l_ty	malleolusMedv_l_tz	neck_tx	neck_ty	neck_tz	subclavicle_r_tx	subclavicle_r_ty	subclavicle_r_tz	subclavicle_l_tx	subclavicle_l_ty	subclavicle_l_tz	sternalnotch_tx	sternalnotch_ty	sternalnotch_tz	xyphoidprocess_tx	xyphoidprocess_ty	xyphoidprocess_tz	thighwand_r_tx	thighwand_r_ty	thighwand_r_tz	thighwand_l_tx	thighwand_l_ty	thighwand_l_tz	upperleg1_r_tx	upperleg1_r_ty	upperleg1_r_tz	upperleg1_l_tx	upperleg1_l_ty	upperleg1_l_tz	upperleg2_r_tx	upperleg2_r_ty	upperleg2_r_tz	upperleg2_l_tx	upperleg2_l_ty	upperleg2_l_tz	shankwand_r_tx	shankwand_r_ty	shankwand_r_tz	shankwand_l_tx	shankwand_l_ty	shankwand_l_tz	lowerleg1_r_tx	lowerleg1_r_ty	lowerleg1_r_tz	lowerleg1_l_tx	lowerleg1_l_ty	lowerleg1_l_tz	toe_r_tx	toe_r_ty	toe_r_tz	toe_l_tx	toe_l_ty	toe_l_tz	ground_force_vx	ground_force_vy	ground_force_vz	ground_force_px	ground_force_py	ground_force_pz	ground_force_vx	ground_force_vy	ground_force_vz	ground_force_px	ground_force_py	ground_force_pz	ground_torque_x	ground_torque_y	ground_torque_z	ground_torque_x	ground_torque_y	ground_torque_z	ground_marker_px	ground_marker_py	ground_marker_pz	ground_marker_px	ground_marker_py	ground_marker_pz	ground_marker_px	ground_marker_py	ground_marker_pz	ground_marker_px	ground_marker_py	ground_marker_pz	ground_marker_px	ground_marker_py	ground_marker_pz	ground_marker_px	ground_marker_py	ground_marker_pz	ground_marker_px	ground_marker_py	ground_marker_pz	ground_marker_px	ground_marker_py	ground_marker_pz	ground_marker_px	ground_marker_py	ground_marker_pz	ground_marker_px	ground_marker_py	ground_marker_pz	ground_marker_px	ground_marker_py	ground_marker_pz	ground_marker_px	ground_marker_py	ground_marker_pz	ground_marker_px	ground_marker_py	ground_marker_pz	ground_marker_px	ground_marker_py	ground_marker_pz	ground_marker_px	ground_marker_py	ground_marker_pz	ground_marker_px	ground_marker_py	ground_marker_pz	ground_marker_px	ground_marker_py	ground_marker_pz	ground_marker_px	ground_marker_py	ground_marker_pz	ground_marker_px	ground_marker_py	ground_marker_pz	ground_marker_px	ground_marker_py	ground_marker_pz	ground_marker_px	ground_marker_py	ground_marker_pz	ground_marker_px	ground_marker_py	ground_marker_pz	ground_marker_px	ground_marker_py	ground_marker_pz	ground_marker_px	ground_marker_py	ground_marker_pz	ground_marker_px	ground_marker_py	ground_marker_pz	ground_marker_px	ground_marker_py	ground_marker_pz	ground_marker_px	ground_marker_py	ground_marker_pz	ground_marker_px	ground_marker_py	ground_marker_pz	ground_marker_px	ground_marker_py	ground_marker_pz	ground_marker_px	ground_marker_py	ground_marker_pz	ground_marker_px	ground_marker_py	ground_marker_pz	ground_marker_px	ground_marker_py	ground_marker_pz	ground_marker_px	ground_marker_py	ground_marker_pz	ground_marker_px	ground_marker_py	ground_marker_pz	ground_marker_px	ground_marker_py	ground_marker_pz	ground_marker_px	ground_marker_py	ground_marker_pz	ground_marker_px	ground_marker_py	ground_marker_pz
      0.23333000	      0.84984227	      0.88083763	     -0.29009550	     -4.99734538	      4.67534647	     -1.05241812	     30.99390488	     -9.90804013	     -8.91528132	    -46.79188992	      4.90371265	     -1.56256218	      5.16012884	      0.83242381	     -7.52519254	     10.52258638	     -9.15739780	     -1.21637841	      2.29947808	      0.00000000	      0.00000000	      0.00000000	      0.00000000	      0.89652611	      0.87248634	     -0.19644739	      0.88326893	      0.88401668	     -0.39738937	      0.86083076	      0.87986019	     -0.28989351	      0.74604005	      0.94102865	     -0.25921167	      0.74219941	      0.94490713	     -0.31384606	      0.78815621	      0.82881200	     -0.22978349	      0.79149880	      0.83928687	     -0.36094003	      0.78982751	      0.83404944	     -0.29536176	      0.96464593	      0.49084991	     -0.11966892	      0.96895729	      0.47238332	     -0.22755208	      1.02892508	      0.69560788	     -0.17930171	      0.93356056	      0.71427270	     -0.15104160	      0.95808157	      0.63242756	     -0.14088977	      0.78995764	      0.10495571	     -0.18356096	      0.84076066	      0.10619891	     -0.23663435	      0.81256116	      0.21956101	     -0.10303537	      0.82987556	      0.22403233	     -0.14141841	      0.95303839	      0.48912775	     -0.18666540	      0.81620024	      0.11549727	     -0.21737592	      0.89624626	      0.04991490	     -0.14277132	      0.76520244	      0.45318452	     -0.41808293	      0.74540077	      0.44371684	     -0.31099841	      0.90877724	      0.59901130	     -0.34602979	      0.84576595	      0.65082100	     -0.40579236	      0.83322018	      0.56387075	     -0.39928652	      0.63784359	      0.06685661	     -0.39871946	      0.66618593	      0.07211970	     -0.33718276	      0.62248883	      0.19047884	     -0.45705904	      0.64181963	      0.19202010	     -0.41838185	      0.74483595	      0.46773182	     -0.35805426	      0.64714284	      0.08079361	     -0.35649679	      0.76050080	      0.03040710	     -0.40811565	      0.89154316	      1.26777431	     -0.21036655	      0.89179600	      1.27213113	     -0.31949475	      0.79259710	      1.32873229	     -0.25845837	      0.87684537	      1.27994681	     -0.26978717	      0.94624891	      1.11923333	     -0.27479551	      0.79236000	      0.83506500	     -0.29756000	      0.79314900	      0.81566500	     -0.23483300	      0.78838300	      0.82364900	     -0.35193600	      0.95151500	      0.46903500	     -0.18038300	      0.74522400	      0.46972000	     -0.35011300	      0.82647800	      0.11847700	     -0.23685700	      0.64261700	      0.07240200	     -0.34290500	      0.85987500	      0.89141700	     -0.28532800	      0.85539500	      0.88449800	     -0.18528100	      0.86435400	      0.89833600	     -0.38537400	      0.70725200	      0.93583800	     -0.26238100	      0.71064000	      0.94214300	     -0.31679700	      0.94767100	      0.47583100	     -0.12594000	      0.76131500	      0.46749000	     -0.40213600	      0.97821800	      0.46585100	     -0.22825500	      0.73311900	      0.45020000	     -0.31572200	      0.80454800	      0.12122000	     -0.20533300	      0.64772300	      0.07039200	     -0.38101200	      0.86088500	      0.11958800	     -0.25257600	      0.65784500	      0.08598400	     -0.31725900	      0.80109800	      1.34491400	     -0.25670700	      0.89002500	      1.24910400	     -0.21480700	      0.88438200	      1.25220200	     -0.31955400	      0.87452100	      1.26445400	     -0.27134900	      0.89457100	      1.09025400	     -0.27646000	      1.01259800	      0.69119200	     -0.18050100	      0.89350600	      0.61191100	     -0.31719200	      0.91782900	      0.70194000	     -0.15032600	      0.83992000	      0.66184500	     -0.38948900	      0.95137300	      0.62390800	     -0.14140800	      0.83047400	      0.57512500	     -0.38516300	      0.81574300	      0.23198800	     -0.12640500	      0.64418900	      0.19205500	     -0.45277900	      0.83826200	      0.23670700	     -0.16299500	      0.65283400	      0.19682500	     -0.41096100	      0.89884900	      0.06577900	     -0.15742000	      0.76465600	      0.03699800	     -0.34154600	      0.00000000	      0.00000000	      0.00000000	      1.25323352	      0.00000000	     -0.24206029	     14.15586476	    350.49595961	     32.09577021	      0.74857587	      0.00000000	     -0.34865500	      0.00000000	      0.00000000	      0.00000000	      0.00000000	      0.41638086	      0.00000000	      0.79236019	      0.83506501	     -0.29756030	      0.79314923	      0.81566525	     -0.23483309	      0.78838283	      0.82364899	     -0.35193631	      0.95151490	      0.46903533	     -0.18038255	      0.74522370	      0.46972042	     -0.35011286	      0.82647842	      0.11847655	     -0.23685673	      0.64261657	      0.07240249	     -0.34290519	      0.85987473	      0.89141726	     -0.28532764	      0.85539526	      0.88449830	     -0.18528116	      0.86435425	      0.89833629	     -0.38537413	      0.70725203	      0.93583834	     -0.26238066	      0.71064031	      0.94214255	     -0.31679690	      0.94767129	      0.47583148	     -0.12593956	      0.76131457	      0.46749023	     -0.40213552	      0.97821760	      0.46585137	     -0.22825477	      0.73311919	      0.45020047	     -0.31572181	      0.80454785	      0.12122023	     -0.20533259	      0.64772314	      0.07039243	     -0.38101205	      0.86088502	      0.11958797	     -0.25257608	      0.65784496	      0.08598432	     -0.31725898	      0.80109805	      1.34491384	     -0.25670728	      0.89002496	      1.24910402	     -0.21480726	      0.88438231	      1.25220168	     -0.31955433	      0.87452078	      1.26445448	     -0.27134946	      0.89457148	      1.09025395	     -0.27645990	      1.01259816	      0.69119173	     -0.18050085	      0.89350647	      0.61191088	     -0.31719169	      0.91782868	      0.70193964	     -0.15032561	      0.83991975	      0.66184491	     -0.38948935	      0.95137256	      0.62390751	     -0.14140838	      0.83047414	      0.57512492	     -0.38516295	      0.81574303	      0.23198843	     -0.12640479	      0.64418852	      0.19205526	     -0.45277938	      0.83826244	      0.23670691	     -0.16299501	      0.65283424	      0.19682483	     -0.41096142	      0.89884937	      0.06577902	     -0.15742017	      0.76465631	      0.03699761	     -0.34154600
      0.24167000	      0.86603706	      0.87965949	     -0.29074529	     -4.99962062	      4.68220073	     -0.60424374	     31.74459930	     -9.93201865	     -8.96276727	    -43.60337879	      3.91534789	     -2.98539147	      5.11162062	      0.96383956	     -6.99777184	     10.53937442	     -9.36443974	     -0.95789405	      1.37702271	      0.00000000	      0.00000000	      0.00000000	      0.00000000	      0.91345081	      0.87126174	     -0.19746878	      0.89862863	      0.88294407	     -0.39829259	      0.87702737	      0.87868850	     -0.29062932	      0.76244169	      0.93976347	     -0.25900914	      0.75817511	      0.94368314	     -0.31360898	      0.80485163	      0.82754878	     -0.22999835	      0.80717061	      0.83813006	     -0.36116844	      0.80601112	      0.83283942	     -0.29558340	      0.98659635	      0.49199002	     -0.12108835	      0.99053651	      0.47363417	     -0.22900459	      1.04771368	      0.69763846	     -0.18098076	      0.95226711	      0.71497958	     -0.15215997	      0.97796721	      0.63347403	     -0.14219430	      0.83738755	      0.09630895	     -0.17923121	      0.88768811	      0.10030915	     -0.23264591	      0.85262565	      0.21320411	     -0.10028197	      0.86937950	      0.21834539	     -0.13882952	      0.97403021	      0.49057046	     -0.18816197	      0.86266329	      0.10816912	     -0.21334460	      0.94661408	      0.04730170	     -0.13903659	      0.77114786	      0.45288727	     -0.41880684	      0.75190959	      0.44368913	     -0.31159621	      0.91872394	      0.59506751	     -0.34755443	      0.85654432	      0.64849906	     -0.40675743	      0.84195240	      0.56186398	     -0.40031485	      0.63824225	      0.06868953	     -0.39910665	      0.66711744	      0.07342479	     -0.33777514	      0.62430047	      0.19262593	     -0.45713358	      0.64393960	      0.19381302	     -0.41859950	      0.75150626	      0.46785477	     -0.35860565	      0.64806266	      0.08241455	     -0.35693256	      0.76028097	      0.03046490	     -0.40948367	      0.90833704	      1.26598578	     -0.20898776	      0.90955038	      1.27047948	     -0.31810396	      0.81005615	      1.32740297	     -0.25785308	      0.89420232	      1.27829255	     -0.26851724	      0.96299976	      1.11730699	     -0.27313475	      0.80835000	      0.83381900	     -0.29700000	      0.80972000	      0.81440500	     -0.23440500	      0.80415600	      0.82247800	     -0.35146700	      0.97294400	      0.46974100	     -0.18010300	      0.75231900	      0.46980200	     -0.35030500	      0.87286600	      0.11130700	     -0.23531900	      0.64362500	      0.07417700	     -0.34287900	      0.87608600	      0.89020900	     -0.28529400	      0.87228300	      0.88320300	     -0.18508800	      0.87989000	      0.89721400	     -0.38549900	      0.72358800	      0.93446800	     -0.26066000	      0.72649700	      0.94098900	     -0.31502100	      0.96925600	      0.47657300	     -0.12565300	      0.76803300	      0.46732000	     -0.40243100	      0.99914300	      0.46708300	     -0.22653800	      0.74009700	      0.45090500	     -0.31504800	      0.85046900	      0.11274100	     -0.20403700	      0.64855000	      0.07210800	     -0.38100700	      0.90813800	      0.11393300	     -0.25055100	      0.65913000	      0.08744200	     -0.31723600	      0.81831100	      1.34336000	     -0.25585500	      0.90764500	      1.24730500	     -0.21376900	      0.90132200	      1.25014000	     -0.31874600	      0.89178800	      1.26267000	     -0.27039100	      0.91161100	      1.08829100	     -0.27515900	      1.02996700	      0.69333600	     -0.18111700	      0.90451300	      0.60869000	     -0.31787900	      0.93525300	      0.70268000	     -0.14987200	      0.85134000	      0.66024400	     -0.38929400	      0.97033100	      0.62531700	     -0.14068300	      0.83974100	      0.57346800	     -0.38514300	      0.85318600	      0.22443900	     -0.12576800	      0.64657700	      0.19377200	     -0.45275700	      0.87682700	      0.22981000	     -0.16184300	      0.65526500	      0.19838400	     -0.41096100	      0.94712100	      0.06221900	     -0.15462900	      0.76519200	      0.03692100	     -0.34154200	      0.00000000	      0.00000000	      0.00000000	      1.26183667	      0.00000000	     -0.23849811	     15.61910029	    365.01083163	     31.56048050	      0.75368768	      0.00000000	     -0.34702759	      0.00000000	      0.00000000	      0.00000000	      0.00000000	      0.34879065	      0.00000000	      0.80835009	      0.83381867	     -0.29699963	      0.80971956	      0.81440544	     -0.23440455	      0.80415565	      0.82247764	     -0.35146657	      0.97294432	      0.46974099	     -0.18010268	      0.75231886	      0.46980193	     -0.35030457	      0.87286645	      0.11130656	     -0.23531890	      0.64362502	      0.07417697	     -0.34287885	      0.87608635	      0.89020860	     -0.28529358	      0.87228316	      0.88320291	     -0.18508811	      0.87988955	      0.89721435	     -0.38549906	      0.72358823	      0.93446821	     -0.26065999	      0.72649693	      0.94098878	     -0.31502122	      0.96925628	      0.47657290	     -0.12565340	      0.76803321	      0.46732047	     -0.40243089	      0.99914348	      0.46708271	     -0.22653830	      0.74009687	      0.45090541	     -0.31504765	      0.85046935	      0.11274109	     -0.20403692	      0.64854956	      0.07210836	     -0.38100654	      0.90813762	      0.11393332	     -0.25055143	      0.65913028	      0.08744180	     -0.31723562	      0.81831139	      1.34335983	     -0.25585479	      0.90764487	      1.24730527	     -0.21376942	      0.90132248	      1.25013971	     -0.31874645	      0.89178807	      1.26266956	     -0.27039105	      0.91161072	      1.08829129	     -0.27515897	      1.02996671	      0.69333613	     -0.18111657	      0.90451312	      0.60869044	     -0.31787860	      0.93525338	      0.70267981	     -0.14987195	      0.85134035	      0.66024446	     -0.38929406	      0.97033072	      0.62531739	     -0.14068310	      0.83974141	      0.57346803	     -0.38514251	      0.85318637	      0.22443886	     -0.12576808	      0.64657736	      0.19377217	     -0.45275700	      0.87682658	      0.22980969	     -0.16184323	      0.65526515	      0.19838406	     -0.41096073	      0.94712138	      0.06221899	     -0.15462895	      0.76519233	      0.03692072	     -0.34154159
      0.25000000	      0.88233050	      0.87836941	     -0.29116402	     -4.96155101	      4.69612546	     -0.16847101	     32.27220361	     -9.92344889	     -8.97998230	    -40.17543646	      2.78721261	     -4.40785756	      5.06005674	      1.13491931	     -6.58052523	     10.52166832	     -9.59242711	     -0.75360460	      0.60915932	      0.00000000	      0.00000000	      0.00000000	      0.00000000	      0.93045610	      0.86994929	     -0.19825482	      0.91410698	      0.88179230	     -0.39895068	      0.89332261	      0.87741249	     -0.29113169	      0.77890006	      0.93831130	     -0.25859434	      0.77421739	      0.94227435	     -0.31315694	      0.82167119	      0.82612546	     -0.23000528	      0.82298869	      0.83682717	     -0.36117949	      0.82232994	      0.83147632	     -0.29559239	      1.00764303	      0.49238535	     -0.12265432	      1.01106425	      0.47418042	     -0.23061382	      1.06620167	      0.69872467	     -0.18272661	      0.97077035	      0.71503306	     -0.15325971	      0.99738993	      0.63379204	     -0.14355098	      0.88483397	      0.08875443	     -0.17497625	      0.93440503	      0.09550666	     -0.22879441	      0.89249772	      0.20743051	     -0.09760108	      0.90861680	      0.21321082	     -0.13632836	      0.99400229	      0.49131594	     -0.18979624	      0.90902070	      0.10187942	     -0.20941441	      0.99663414	      0.04576177	     -0.13559740	      0.77757636	      0.45263590	     -0.41920210	      0.75881749	      0.44370268	     -0.31188417	      0.92889950	      0.59119432	     -0.34867765	      0.86760998	      0.64617187	     -0.40739132	      0.85103316	      0.55989124	     -0.40099358	      0.63866286	      0.07077634	     -0.39920887	      0.66800926	      0.07494660	     -0.33806027	      0.62634833	      0.19501436	     -0.45695831	      0.64625439	      0.19582252	     -0.41855160	      0.75862339	      0.46799515	     -0.35885237	      0.64897798	      0.08427352	     -0.35707938	      0.75998403	      0.03056670	     -0.41043262	      0.92524411	      1.26409620	     -0.20775929	      0.92712681	      1.26870030	     -0.31686140	      0.82747903	      1.32591845	     -0.25714576	      0.91151037	      1.27651644	     -0.26735902	      0.97975480	      1.11528901	     -0.27173771	      0.82463600	      0.83255200	     -0.29632300	      0.82638800	      0.81305900	     -0.23388800	      0.82005700	      0.82123400	     -0.35090400	      0.99352400	      0.46983400	     -0.18018400	      0.75984900	      0.46992100	     -0.35029300	      0.91892500	      0.10482100	     -0.23337500	      0.64466200	      0.07621700	     -0.34281100	      0.89234600	      0.88897700	     -0.28513600	      0.88919500	      0.88186600	     -0.18478000	      0.89549700	      0.89608900	     -0.38549100	      0.74004500	      0.93292000	     -0.25881300	      0.74245800	      0.93965000	     -0.31313000	      0.99003900	      0.47665900	     -0.12572100	      0.77523400	      0.46719400	     -0.40250600	      1.01844800	      0.46759300	     -0.22517300	      0.74747400	      0.45143100	     -0.31470700	      0.89622600	      0.10492800	     -0.20227800	      0.64942800	      0.07409700	     -0.38095600	      0.95505300	      0.10908500	     -0.24800800	      0.66050800	      0.08905000	     -0.31720100	      0.83551800	      1.34171900	     -0.25493000	      0.92542300	      1.24560600	     -0.21291000	      0.91827000	      1.24814300	     -0.31800700	      0.90897200	      1.26090000	     -0.26951800	      0.92896600	      1.08642100	     -0.27395900	      1.04707500	      0.69440200	     -0.18186300	      0.91576900	      0.60562900	     -0.31828400	      0.95228200	      0.70277600	     -0.14918200	      0.86281900	      0.65854400	     -0.38888800	      0.98859400	      0.62599800	     -0.13998100	      0.84926600	      0.57206800	     -0.38508700	      0.89049300	      0.21703400	     -0.12477900	      0.64922100	      0.19575200	     -0.45259100	      0.91514300	      0.22330200	     -0.16022100	      0.65752800	      0.20021000	     -0.41099300	      0.99521800	      0.05931200	     -0.15191000	      0.76572300	      0.03688600	     -0.34150900	      0.00000000	      0.00000000	      0.00000000	      1.26910632	      0.00000000	     -0.23507755	     18.16852900	    379.42547388	     30.99484269	      0.75833966	      0.00000000	     -0.34534897	      0.00000000	      0.00000000	      0.00000000	      0.00000000	      0.28634045	      0.00000000	      0.82463574	      0.83255202	     -0.29632300	      0.82638788	      0.81305909	     -0.23388819	      0.82005727	      0.82123357	     -0.35090411	      0.99352401	      0.46983406	     -0.18018405	      0.75984949	      0.46992129	     -0.35029325	      0.91892469	      0.10482082	     -0.23337480	      0.64466166	      0.07621662	     -0.34281084	      0.89234596	      0.88897741	     -0.28513572	      0.88919520	      0.88186580	     -0.18478005	      0.89549673	      0.89608908	     -0.38549137	      0.74004453	      0.93292028	     -0.25881276	      0.74245822	      0.93965006	     -0.31312972	      0.99003863	      0.47665870	     -0.12572052	      0.77523357	      0.46719396	     -0.40250570	      1.01844764	      0.46759331	     -0.22517307	      0.74747360	      0.45143089	     -0.31470662	      0.89622611	      0.10492829	     -0.20227794	      0.64942825	      0.07409709	     -0.38095582	      0.95505279	      0.10908531	     -0.24800815	      0.66050792	      0.08905005	     -0.31720129	      0.83551764	      1.34171939	     -0.25493047	      0.92542338	      1.24560571	     -0.21291006	      0.91827047	      1.24814343	     -0.31800690	      0.90897155	      1.26089990	     -0.26951808	      0.92896587	      1.08642125	     -0.27395913	      1.04707539	      0.69440174	     -0.18186338	      0.91576916	      0.60562897	     -0.31828400	      0.95228183	      0.70277590	     -0.14918230	      0.86281860	      0.65854418	     -0.38888779	      0.98859435	      0.62599826	     -0.13998117	      0.84926587	      0.57206768	     -0.38508713	      0.89049262	      0.21703410	     -0.12477949	      0.64922112	      0.19575246	     -0.45259127	      0.91514266	      0.22330205	     -0.16022117	      0.65752846	      0.20020963	     -0.41099313	      0.99521834	      0.05931150	     -0.15191007	      0.76572341	      0.03688563	     -0.34150884
